<?xml version="1.0" encoding="iso-8859-1"?>
<!-- Generator: Adobe Illustrator 16.0.0, SVG Export Plug-In . SVG Version: 6.00 Build 0)  -->
<!DOCTYPE svg PUBLIC "-//W3C//DTD SVG 1.1//EN" "http://www.w3.org/Graphics/SVG/1.1/DTD/svg11.dtd">
<svg version="1.1" id="Capa_1" xmlns="http://www.w3.org/2000/svg" xmlns:xlink="http://www.w3.org/1999/xlink" x="0px" y="0px"
	 width="46.174px" height="46.174px" viewBox="0 0 46.174 46.174" style="enable-background:new 0 0 46.174 46.174;"
	 xml:space="preserve">
<g>
	<g>
		<path d="M42.822,0.551l-0.709-0.105c-0.508-0.076-0.98,0.273-1.057,0.781l-0.548,3.671c-0.026,0.18-0.16,0.325-0.338,0.366
			l-3.8,0.877l0.621-4.843c0.068-0.525-0.284-1.015-0.806-1.118l-0.817-0.161c-0.521-0.102-1.03,0.219-1.169,0.731l-3.312,12.491
			c-0.047,0.181-0.158,0.338-0.313,0.443l-3.754,2.562l-2.729-5.553c-0.198-0.404-0.688-0.571-1.091-0.372l-0.847,0.416
			c-0.405,0.198-0.572,0.688-0.373,1.094l2.894,5.881l-6.629,4.521L8.15,12.934v-8.61c0-0.348-0.282-0.629-0.629-0.629H6.543
			c-0.347,0-0.629,0.281-0.629,0.629v9.579l4.603,4.324H3.332c-0.425,0-0.771,0.346-0.771,0.771v0.695
			c0,0.425,0.345,0.771,0.771,0.771h9.563l3.36,3.158l-0.282,1.583l-3.58,20.969h12.137l-0.574-6.314l1.968-2.997
			c0.187-0.285,0.129-0.665-0.136-0.882l-0.678-0.559c-0.305-0.25-0.758-0.183-0.979,0.146l-0.502,0.749l-0.854-9.49l11.742-9.967
			c0.445-0.379,0.729-0.914,0.794-1.496l0.71-6.496l5.732-1.324c0.604-0.139,1.061-0.634,1.15-1.246l0.699-4.688
			C43.681,1.1,43.331,0.627,42.822,0.551z"/>
	</g>
</g>
<g>
</g>
<g>
</g>
<g>
</g>
<g>
</g>
<g>
</g>
<g>
</g>
<g>
</g>
<g>
</g>
<g>
</g>
<g>
</g>
<g>
</g>
<g>
</g>
<g>
</g>
<g>
</g>
<g>
</g>
</svg>
