<?xml version="1.0" encoding="UTF-8" standalone="no"?>
<svg
   xmlns:dc="http://purl.org/dc/elements/1.1/"
   xmlns:cc="http://creativecommons.org/ns#"
   xmlns:rdf="http://www.w3.org/1999/02/22-rdf-syntax-ns#"
   xmlns:svg="http://www.w3.org/2000/svg"
   xmlns="http://www.w3.org/2000/svg"
   xmlns:sodipodi="http://sodipodi.sourceforge.net/DTD/sodipodi-0.dtd"
   xmlns:inkscape="http://www.inkscape.org/namespaces/inkscape"
   width="86.343269mm"
   height="86.694527mm"
   viewBox="0 0 86.343269 86.694527"
   version="1.1"
   id="svg8"
   inkscape:version="1.0.2 (e86c870879, 2021-01-15)"
   sodipodi:docname="logo2.svg"
   inkscape:export-filename="/home/devmessias/phd/pkgs/pyastrx-proj/pyastrx/docs/source/_static/imgs/logo.png"
   inkscape:export-xdpi="96"
   inkscape:export-ydpi="96">
  <defs
     id="defs2" />
  <sodipodi:namedview
     id="base"
     pagecolor="#ffffff"
     bordercolor="#666666"
     borderopacity="1.0"
     inkscape:pageopacity="1"
     inkscape:pageshadow="2"
     inkscape:zoom="0.7"
     inkscape:cx="22.619284"
     inkscape:cy="29.772121"
     inkscape:document-units="mm"
     inkscape:current-layer="layer1"
     inkscape:document-rotation="0"
     showgrid="false"
     fit-margin-top="0"
     fit-margin-left="0"
     fit-margin-right="0"
     fit-margin-bottom="0"
     inkscape:window-width="1366"
     inkscape:window-height="739"
     inkscape:window-x="0"
     inkscape:window-y="0"
     inkscape:window-maximized="1" />
  <metadata
     id="metadata5">
    <rdf:RDF>
      <cc:Work
         rdf:about="">
        <dc:format>image/svg+xml</dc:format>
        <dc:type
           rdf:resource="http://purl.org/dc/dcmitype/StillImage" />
        <dc:title></dc:title>
      </cc:Work>
    </rdf:RDF>
  </metadata>
  <g
     inkscape:label="Layer 1"
     inkscape:groupmode="layer"
     id="layer1"
     transform="translate(-10.965935,-118.41178)">
    <g
       id="g292"
       transform="matrix(0.74300768,0,0,0.74300768,14.569932,40.422881)">
      <text
         xml:space="preserve"
         style="font-size:17.2352px;line-height:1.25;font-family:sans-serif;stroke-width:0.179533"
         x="22.973885"
         y="157.9054"
         id="text12"><tspan
           sodipodi:role="line"
           id="tspan10"
           x="22.973885"
           y="157.9054"
           style="font-style:normal;font-variant:normal;font-weight:normal;font-stretch:normal;font-size:17.2352px;font-family:serif;-inkscape-font-specification:serif;stroke-width:0.179533">A</tspan></text>
      <g
         id="g204"
         transform="matrix(0.56159665,0,0,0.56159665,29.578572,131.97423)">
        <g
           id="g147">
          <g
             id="g145">
            <path
               d="M 42.822,0.551 42.113,0.446 C 41.605,0.37 41.133,0.719 41.056,1.227 l -0.548,3.671 c -0.026,0.18 -0.16,0.325 -0.338,0.366 l -3.8,0.877 0.621,-4.843 C 37.059,0.773 36.707,0.283 36.185,0.18 L 35.368,0.019 c -0.521,-0.102 -1.03,0.219 -1.169,0.731 l -3.312,12.491 c -0.047,0.181 -0.158,0.338 -0.313,0.443 L 26.82,16.246 24.091,10.693 C 23.893,10.289 23.403,10.122 23,10.321 l -0.847,0.416 c -0.405,0.198 -0.572,0.688 -0.373,1.094 l 2.894,5.881 -6.629,4.521 L 8.15,12.934 V 4.324 C 8.15,3.976 7.868,3.695 7.521,3.695 H 6.543 c -0.347,0 -0.629,0.281 -0.629,0.629 v 9.579 l 4.603,4.324 H 3.332 c -0.425,0 -0.771,0.346 -0.771,0.771 v 0.695 c 0,0.425 0.345,0.771 0.771,0.771 h 9.563 l 3.36,3.158 -0.282,1.583 -3.58,20.969 H 24.53 l -0.574,-6.314 1.968,-2.997 c 0.187,-0.285 0.129,-0.665 -0.136,-0.882 L 25.11,35.422 c -0.305,-0.25 -0.758,-0.183 -0.979,0.146 l -0.502,0.749 -0.854,-9.49 11.742,-9.967 c 0.445,-0.379 0.729,-0.914 0.794,-1.496 l 0.71,-6.496 5.732,-1.324 C 42.357,7.405 42.814,6.91 42.903,6.298 L 43.602,1.61 C 43.681,1.1 43.331,0.627 42.822,0.551 Z"
               id="path143" />
          </g>
        </g>
        <g
           id="g149" />
        <g
           id="g151" />
        <g
           id="g153" />
        <g
           id="g155" />
        <g
           id="g157" />
        <g
           id="g159" />
        <g
           id="g161" />
        <g
           id="g163" />
        <g
           id="g165" />
        <g
           id="g167" />
        <g
           id="g169" />
        <g
           id="g171" />
        <g
           id="g173" />
        <g
           id="g175" />
        <g
           id="g177" />
      </g>
      <text
         xml:space="preserve"
         style="font-size:17.2352px;line-height:1.25;font-family:sans-serif;stroke-width:0.179533"
         x="44.422398"
         y="157.9054"
         id="text12-3"><tspan
           sodipodi:role="line"
           id="tspan10-3"
           x="44.422398"
           y="157.9054"
           style="font-style:normal;font-variant:normal;font-weight:normal;font-stretch:normal;font-size:17.2352px;font-family:serif;-inkscape-font-specification:serif;stroke-width:0.179533">X</tspan></text>
    </g>
    <path
       fill="none"
       stroke="#000000"
       stroke-width="4.69017"
       stroke-linecap="round"
       d="m 59.192091,164.618 a 19.933255,19.933255 0 1 0 -0.260567,0.26056 l 22.148064,22.14805 m -11.855727,-15.24305 14.331104,14.33109 -3.387354,3.38734 -14.331103,-14.33108"
       id="path258" />
  </g>
</svg>
